<?xml version="1.0" standalone="no"?>
<!DOCTYPE svg PUBLIC "-//W3C//DTD SVG 1.1//EN" "http://www.w3.org/Graphics/SVG/1.1/DTD/svg11.dtd">
<svg version="1.1" xmlns="http://www.w3.org/2000/svg" viewBox="0 0 44.898439122076525 55.70341492732223" width="44.898439122076525" height="55.70341492732223"><!-- svg-source:excalidraw --><metadata></metadata><defs><style class="style-fonts">
      </style></defs><g stroke-linecap="round"><g transform="translate(10.076926649408051 10.438139742278508) rotate(0 -0.03846332470402558 17.541364120628714)"><path d="M0 0 C-0.01 5.85, -0.06 29.24, -0.08 35.08 M0 0 C-0.01 5.85, -0.06 29.24, -0.08 35.08" stroke="#be4bdb" stroke-width="4" fill="none"></path></g></g><mask></mask><g stroke-linecap="round"><g transform="translate(22.760413076150144 10.6206866860648) rotate(0 -0.03846332470402558 17.541364120628714)"><path d="M0 0 C-0.01 5.85, -0.06 29.24, -0.08 35.08 M0 0 C-0.01 5.85, -0.06 29.24, -0.08 35.08" stroke="#ffffff" stroke-width="4" fill="none"></path></g></g><mask></mask><g stroke-linecap="round"><g transform="translate(34.898439122076525 10) rotate(0 -0.03846332470402558 17.541364120628714)"><path d="M0 0 C-0.01 5.85, -0.06 29.24, -0.08 35.08 M0 0 C-0.01 5.85, -0.06 29.24, -0.08 35.08" stroke="#ffffff" stroke-width="4" fill="none"></path></g></g><mask></mask></svg>