<?xml version="1.0" standalone="no"?>
<!DOCTYPE svg PUBLIC "-//W3C//DTD SVG 1.1//EN" "http://www.w3.org/Graphics/SVG/1.1/DTD/svg11.dtd">
<svg version="1.1" xmlns="http://www.w3.org/2000/svg" viewBox="0 0 69.89814884692987 71.04979237339103" width="69.89814884692987" height="71.04979237339103"><!-- svg-source:excalidraw --><metadata></metadata><defs><style class="style-fonts">
      </style></defs><g stroke-linecap="round"><g transform="translate(35.607492841401836 48.58384259032482) rotate(0 0 -18.795391589165092)"><path d="M0 0 C0 -6.27, 0 -31.33, 0 -37.59 M0 0 C0 -6.27, 0 -31.33, 0 -37.59" stroke="#ffffff" stroke-width="4" fill="none"></path></g></g><mask></mask><g stroke-linecap="round"><g transform="translate(10 61.04979237339103) rotate(0 0.006784314061860641 -6.047894232646286)"><path d="M0 0 C0 -2.02, 0.01 -10.08, 0.01 -12.1 M0 0 C0 -2.02, 0.01 -10.08, 0.01 -12.1" stroke="#9c36b5" stroke-width="4" fill="none"></path></g></g><mask></mask><g stroke-linecap="round"><g transform="translate(10.179388590873714 47.935273616321865) rotate(0 5.861655251272623 -5.86812693372417)"><path d="M0 0 C1.95 -1.96, 9.77 -9.78, 11.72 -11.74 M0 0 C1.95 -1.96, 9.77 -9.78, 11.72 -11.74" stroke="#9c36b5" stroke-width="4" fill="none"></path></g></g><mask></mask><g stroke-linecap="round"><g transform="translate(22.3440812551853 35.865021970283124) rotate(0 0 -6.513845137624685)"><path d="M0 0 C0 -2.17, 0 -10.86, 0 -13.03 M0 0 C0 -2.17, 0 -10.86, 0 -13.03" stroke="#9c36b5" stroke-width="4" fill="none"></path></g></g><mask></mask><g stroke-linecap="round"><g transform="translate(47.67741005406515 48.43776935472397) rotate(0 0.006784314061860641 -6.047894232646286)"><path d="M0 0 C0 -2.02, 0.01 -10.08, 0.01 -12.1 M0 0 C0 -2.02, 0.01 -10.08, 0.01 -12.1" stroke="#ffffff" stroke-width="4" fill="none"></path></g></g><mask></mask><g stroke-linecap="round"><g transform="translate(47.85679864493886 35.323250597654805) rotate(0 5.861655251272623 -5.86812693372417)"><path d="M0 0 C1.95 -1.96, 9.77 -9.78, 11.72 -11.74 M0 0 C1.95 -1.96, 9.77 -9.78, 11.72 -11.74" stroke="#ffffff" stroke-width="4" fill="none"></path></g></g><mask></mask><g stroke-linecap="round"><g transform="translate(59.89814884692987 23.252998951616064) rotate(0 0 -6.626499475808032)"><path d="M0 0 C0 -2.21, 0 -11.04, 0 -13.25 M0 0 C0 -2.21, 0 -11.04, 0 -13.25" stroke="#ffffff" stroke-width="4" fill="none"></path></g></g><mask></mask></svg>