<?xml version="1.0" standalone="no"?>
<!DOCTYPE svg PUBLIC "-//W3C//DTD SVG 1.1//EN" "http://www.w3.org/Graphics/SVG/1.1/DTD/svg11.dtd">
<svg version="1.1" xmlns="http://www.w3.org/2000/svg" viewBox="0 0 69.13924506595595 57.501563147010756" width="69.13924506595595" height="57.501563147010756"><!-- svg-source:excalidraw --><metadata></metadata><defs><style class="style-fonts">
      </style></defs><g stroke-linecap="round"><g transform="translate(22.049378933656953 35.56431582901109) rotate(179.17752526943138 -6.06667567777049 5.806399401433964)"><path d="M0 0 C-2.02 1.94, -10.11 9.68, -12.13 11.61 M0 0 C-2.02 1.94, -10.11 9.68, -12.13 11.61" stroke="#be4bdb" stroke-width="4" fill="none"></path></g></g><mask></mask><g stroke-linecap="round"><g transform="translate(22.280253622750024 10.001306087100374) rotate(179.17752526943138 -0.18196788475597714 12.67549660716736)"><path d="M0 0 C-0.06 4.23, -0.3 21.13, -0.36 25.35 M0 0 C-0.06 4.23, -0.3 21.13, -0.36 25.35" stroke="#be4bdb" stroke-width="4" fill="none"></path></g></g><mask></mask><g stroke-linecap="round"><g transform="translate(34.17879646689653 10.089830025119) rotate(0 0.04489771228054451 18.70586656094588)"><path d="M0 0 C0.01 6.24, 0.07 31.18, 0.09 37.41 M0 0 C0.01 6.24, 0.07 31.18, 0.09 37.41" stroke="#ffffff" stroke-width="4" fill="none"></path></g></g><mask></mask><g stroke-linecap="round"><g transform="translate(47.14714020801057 22.33669002835859) rotate(179.17752526943138 6.040133878129382 -6.098519677937702)"><path d="M0 0 C2.01 -2.03, 10.07 -10.16, 12.08 -12.2 M0 0 C2.01 -2.03, 10.07 -10.16, 12.08 -12.2" stroke="#ffffff" stroke-width="4" fill="none"></path></g></g><mask></mask><g stroke-linecap="round"><g transform="translate(47.200767457417896 47.47964161943105) rotate(179.17752526943138 0.06936425818958014 -12.239139963776779)"><path d="M0 0 C0.02 -4.08, 0.12 -20.4, 0.14 -24.48 M0 0 C0.02 -4.08, 0.12 -20.4, 0.14 -24.48" stroke="#ffffff" stroke-width="4" fill="none"></path></g></g><mask></mask></svg>